<svg xmlns="http://www.w3.org/2000/svg" xml:space="preserve" style="enable-background:new 0 0 24 24" viewBox="0 0 24 24"><path d="M11.9 14.8H8.6s-.1 0-.1.1l-.2.7c0 .1 0 .2.1.2h1.3c.1 0 .1.1.1.2l-2 2.2 1 3.4c0 .1 0 .1-.1.1h-1s-.1 0-.1-.1L7 19.8c0-.1-.2-.1-.2 0L6.4 21v.1l.4 1.5.1.1h3.3c.1 0 .1-.1.1-.1L9 18.3v-.1l3-3.2c0-.1 0-.2-.1-.2z"/><path d="M8 13H6s-.1 0-.1.1l-.3.7c0 .1 0 .2.1.2h.8c.1 0 .1.1.1.2l-2.4 6.7c0 .1-.1.1-.1.1s-.1 0-.1-.1L2.4 16c0-.1 0-.1.1-.1h.9s.1 0 .1.1l.6 1.7c0 .1.1.1.1.1s.1 0 .1-.1l1-2.7c0-.1 0-.1-.1-.1H1.1c-.1-.1-.1 0-.1 0l3.1 9c.1.1.1.1.2.1 0 0 .1 0 .1-.1l3.8-10.8c-.1 0-.1-.1-.2-.1z" style="fill:#d8141c"/><path d="M20.2 8.6 22 6.9V5h-3.7l-1-1.5H22c.8 0 1.5.7 1.5 1.5v1.9c0 .4-.2.8-.5 1.1l-5.7 5.4v5.3c0 .6-.3 1.1-.9 1.4l-2.7 1.3c-.8.4-1.6 0-2-.7-.1-.2-.1-.4-.1-.6v-2.5l1.4-1.5.1-.1v4l2.7-1.3v-5.5c0-.1 0-.3.1-.4.1-.1.1-.2.2-.3L19 9.8h.2c.5-.2.9-.6 1-1.2z"/><path d="M10 9.8v.4c-.1.8.5 1.5 1.4 1.6h.6l.8.8c.2.2.3.4.3.7v.7c-.3-.4-.8-.6-1.2-.6h-.4L6 8c-.3-.3-.5-.7-.5-1.1V5c0-.8.7-1.5 1.5-1.5h3.5L10.4 5H7v1.9l3 2.9z"/><path d="m16.1 6.8-3.1.9-.2 2.3-1.4.4.7-9.1 1.4-.4 5.2 7.5-1.4.4-1.2-2zm-.8-1.1-1.9-2.9-.3 3.5 2.2-.6z"/></svg>