<svg width="24" height="24" fill="none" xmlns="http://www.w3.org/2000/svg"><path d="M11.89 14.778l-3.267.008a.11.11 0 00-.102.075l-.25.722c-.022.076.03.152.103.152h1.27c.095 0 .146.122.08.19L7.7 18.105h.007l1.042 3.397c.022.076-.03.145-.103.145h-1.02a.104.104 0 01-.102-.076L7 19.83c-.029-.107-.168-.107-.205-.008l-.426 1.223a.109.109 0 000 .069l.39 1.481c.014.046.058.084.102.084h3.288c.073 0 .125-.076.103-.145l-1.329-4.277c-.014-.038 0-.084.03-.114l3.016-3.176c.066-.069.015-.19-.08-.19z"/><path d="M8.022 13l-1.99.008a.11.11 0 00-.102.076l-.257.721c-.03.076.03.152.103.152h.836c.074 0 .125.076.103.152l-2.37 6.717a.108.108 0 01-.206 0l-1.703-4.848a.112.112 0 01.103-.152h.859a.11.11 0 01.103.076l.616 1.748a.108.108 0 00.206 0l.954-2.72a.112.112 0 00-.103-.152H1.108c-.074 0-.125.076-.103.152l3.127 8.996a.108.108 0 00.205 0l3.787-10.774c.022-.076-.029-.152-.102-.152z" fill="#D8141C"/><path d="M20.22 8.626L22 6.918V5h-3.723l-1.034-1.5H22A1.5 1.5 0 0123.5 5v1.918c0 .409-.167.8-.461 1.083l-5.652 5.423-.028 5.302a1.5 1.5 0 01-.863 1.35l-2.735 1.282A1.5 1.5 0 0111.624 20v-2.49l1.431-1.507.07-.076V20l2.734-1.282.03-5.53c0-.128.026-.256.077-.374a.972.972 0 01.222-.317l2.787-2.675.163-.044a1.5 1.5 0 001.083-1.152z"/><path d="M10.01 9.801l-.029.355a1.5 1.5 0 001.884 1.571l.122-.033.838.803a.94.94 0 01.3.691v.666a1.574 1.574 0 00-1.236-.576h-.416l-5.51-5.276A1.5 1.5 0 015.5 6.918V5A1.5 1.5 0 017 3.5h3.523L10.401 5H7v1.918l3.01 2.883z"/><path d="M16.109 6.824l-3.085.827-.171 2.258-1.376.37.74-9.102L13.57.815l5.18 7.514-1.364.366-1.277-1.87zm-.767-1.104l-1.95-2.861-.269 3.455 2.22-.594z"/></svg>