<svg width="256" height="256" fill="none" xmlns="http://www.w3.org/2000/svg">
  <path fill="#fff" d="M0 0h256v256H0z"/>
  <path d="M64.6 56.7h126.8c2.1 0 4.1.8 5.6 2.2a7.3 7.3 0 012.3 5.3v19.4c0 4-1.7 7.8-4.6 10.6l-43 40.7v42c0 2.8-1.6 5.4-4.3 6.6l-31.7 15a8.3 8.3 0 01-7.7-.3 7.7 7.7 0 01-2.8-2.7c-.6-1.1-1-2.4-1-3.7v-4.6l13.1-13.8V184l21.3-9.8.2-42.4a7.1 7.1 0 012.3-5.4l45.1-42.8V69H69.8v14.7l45.2 42.8a7.5 7.5 0 012.3 5.4v17.5a14 14 0 00-8-2.4h-5v-12l-43-40.7c-3-2.8-4.6-6.6-4.6-10.6V64.2c0-2 .8-4 2.3-5.3a8.2 8.2 0 015.6-2.2z" fill="#000"/>
  <path d="M109.3 160.2l-26.5.1c-.4 0-.7.3-.8.6l-2 5.9c-.2.6.2 1.2.8 1.2H91c.7 0 1.2 1 .6 1.5l-16.4 17.7 8.5 27.6c.2.6-.2 1.1-.8 1.1h-8.3a.8.8 0 01-.8-.6l-4.3-14.1c-.2-.9-1.3-.9-1.6 0l-3.5 9.9v.5l3.2 12c.1.4.5.7.8.7h26.7c.6 0 1-.6.8-1.2l-10.8-34.6c0-.4 0-.7.3-1l24.4-25.7c.6-.6.1-1.6-.6-1.6z" fill="#000"/>
  <path d="M78 145.8H61.7c-.4 0-.7.3-.8.7l-2.1 5.9a1 1 0 00.8 1.2h6.8c.6 0 1 .6.8 1.2l-19.2 54.5a.9.9 0 01-1.7 0L32.6 170a1 1 0 01.9-1.3h7c.3 0 .7.3.8.7l5 14.1c.3.8 1.3.8 1.6 0l7.8-22a1 1 0 00-.9-1.3h-33c-.5 0-1 .7-.8 1.3l25.4 72.9c.3.8 1.4.8 1.7 0l30.7-87.3c.1-.7-.3-1.3-.9-1.3z" fill="#D8141C"/>
</svg>
