<svg xmlns="http://www.w3.org/2000/svg" width="24" height="24"><path d="m11.89 14.778-3.267.008a.11.11 0 0 0-.102.075l-.25.722c-.022.076.03.152.103.152h1.27c.095 0 .146.122.08.19L7.7 18.105h.007l1.042 3.397c.022.076-.03.145-.103.145h-1.02a.104.104 0 0 1-.102-.076L7 19.83c-.029-.107-.168-.107-.205-.008l-.426 1.223a.109.109 0 0 0 0 .069l.39 1.481c.014.046.058.084.102.084h3.288c.073 0 .125-.076.103-.145l-1.329-4.277c-.014-.038 0-.084.03-.114l3.016-3.176c.066-.069.015-.19-.08-.19Z"/><path fill="#D8141C" d="m8.022 13-1.99.008a.11.11 0 0 0-.102.076l-.257.721c-.03.076.03.152.103.152h.836c.074 0 .125.076.103.152l-2.37 6.717a.108.108 0 0 1-.206 0l-1.703-4.848a.112.112 0 0 1 .103-.152h.859a.11.11 0 0 1 .103.076l.616 1.748a.108.108 0 0 0 .206 0l.954-2.72a.112.112 0 0 0-.103-.152H1.108c-.074 0-.125.076-.103.152l3.127 8.996a.108.108 0 0 0 .205 0l3.787-10.774c.022-.076-.029-.152-.102-.152Z"/><path d="M15.506 12a.576.576 0 0 1-.32-.107.62.62 0 0 1-.236-.236.606.606 0 0 1-.085-.321V7.907l-2.523-2.293A1.123 1.123 0 0 1 12 4.821V3.664c0-.171.085-.343.214-.471A.676.676 0 0 1 12.706 3h7.588c.193 0 .364.064.492.193.128.128.214.3.214.471v1.179c0 .3-.128.578-.342.793l-2.565 2.443.064 2.357a.66.66 0 0 1-.385.6l-1.903.9s-.192.064-.299.064h-.064Zm-2.287-7.157 2.672 2.443.128.193s.064.171.064.257v2.807l.855-.386V7.693l.064-.214s.086-.15.15-.215l2.672-2.593-.043-.514H13.22v.686ZM4 5.417h2.267v6.09l1.466-.006V5.417H10V4H4v1.417ZM13.059 16c.416-.438.52-1 .393-1.5H20V16h-6.941ZM11.036 20l-.438-1.41.086-.09H13V20h-1.964Z"/></svg>