<svg width="24" height="24" fill="none" xmlns="http://www.w3.org/2000/svg"><path d="M4.889 4H19.11c.236 0 .462.089.629.247a.82.82 0 0 1 .26.595v2.181c0 .44-.19.873-.518 1.185l-4.815 4.562v4.704c0 .319-.19.61-.492.753l-3.555 1.685a.932.932 0 0 1-.865-.038.864.864 0 0 1-.309-.306.809.809 0 0 1-.113-.41v-.518l1.47-1.546v1.192l2.38-1.104.026-4.76c0-.112.023-.221.067-.323a.838.838 0 0 1 .193-.273l5.062-4.803V5.371H5.469v1.652l5.073 4.803c.082.078.148.17.193.273a.8.8 0 0 1 .067.322v1.97a1.576 1.576 0 0 0-.902-.275l-.567.002V12.77L4.518 8.208A1.646 1.646 0 0 1 4 7.023v-2.18a.82.82 0 0 1 .26-.596A.915.915 0 0 1 4.89 4Z" /><path d="m9.9 15.616-2.97.007a.1.1 0 0 0-.093.07l-.227.656c-.02.069.027.138.094.138h1.154c.087 0 .133.11.073.172L6.09 18.642h.006l.948 3.087c.02.07-.027.131-.094.131h-.927a.095.095 0 0 1-.093-.069l-.474-1.581c-.027-.097-.154-.097-.187-.007l-.387 1.112a.1.1 0 0 0 0 .062l.354 1.347c.013.041.053.076.093.076h2.99c.066 0 .113-.07.093-.131l-1.208-3.89c-.013-.034 0-.075.027-.103l2.742-2.887c.06-.062.013-.173-.073-.173Z"/><path d="m6.383 14-1.808.007a.1.1 0 0 0-.093.069l-.234.656a.102.102 0 0 0 .094.138h.76c.067 0 .114.07.094.139L3.04 21.114a.098.098 0 0 1-.187 0l-1.548-4.406a.102.102 0 0 1 .093-.138h.78a.1.1 0 0 1 .094.069l.56 1.588c.034.09.154.09.188 0l.867-2.473a.102.102 0 0 0-.094-.138H.098c-.067 0-.113.07-.093.138l2.842 8.179c.033.09.154.09.187 0l3.443-9.795c.02-.069-.027-.138-.094-.138Z" fill="#D8141C"/></svg>