<svg xmlns="http://www.w3.org/2000/svg" width="25" height="24" fill="none"><path d="m12.39 14.778-3.267.008a.11.11 0 0 0-.102.075l-.25.722c-.022.076.03.152.103.152h1.27c.095 0 .146.122.08.19L8.2 18.105h.007l1.042 3.397c.022.076-.03.145-.103.145h-1.02a.104.104 0 0 1-.102-.076L7.5 19.83c-.029-.107-.168-.107-.205-.008l-.426 1.223a.109.109 0 0 0 0 .069l.39 1.481c.014.046.058.084.102.084h3.288c.073 0 .125-.076.103-.145l-1.329-4.277c-.014-.038 0-.084.03-.114l3.016-3.176c.066-.069.015-.19-.08-.19Z"/><path fill="#D8141C" d="m8.522 13-1.99.008a.11.11 0 0 0-.102.076l-.257.721c-.03.076.03.152.103.152h.836c.074 0 .125.076.103.152l-2.37 6.717a.108.108 0 0 1-.206 0l-1.703-4.848a.112.112 0 0 1 .103-.152h.859a.11.11 0 0 1 .103.076l.616 1.748a.108.108 0 0 0 .206 0l.954-2.72a.112.112 0 0 0-.103-.152H1.608c-.074 0-.125.076-.103.152l3.127 8.996a.108.108 0 0 0 .205 0l3.787-10.774c.022-.076-.029-.152-.102-.152Z"/><path d="M18.845 8.973a.549.549 0 0 1-.16-.08.762.762 0 0 1-.102-.073.538.538 0 0 1-.133-.163.606.606 0 0 1-.085-.321v-.903c.153.11.283.241.389.393.193.27.29.604.29 1.002 0 .058-.004.116-.01.172h-.028a.54.54 0 0 1-.161-.027ZM18.13 9.725c.116.08.245.144.38.19a2.032 2.032 0 0 1-.45.288c.186.067.352.153.496.26.19.14.337.315.44.523.102.205.153.44.153.707 0 .3-.06.566-.18.8-.12.234-.288.432-.505.593-.217.162-.47.285-.76.37-.29.082-.605.123-.945.123-.267 0-.533-.036-.8-.106a2.432 2.432 0 0 1-.73-.334 1.77 1.77 0 0 1-.531-.58 1.72 1.72 0 0 1-.198-.848h1.485c0 .135.037.258.11.37a.82.82 0 0 0 .303.258.885.885 0 0 0 .41.097.969.969 0 0 0 .46-.101.738.738 0 0 0 .396-.672c0-.217-.037-.39-.11-.519a.622.622 0 0 0-.312-.281 1.22 1.22 0 0 0-.488-.088h-.72V9.672h.72a.934.934 0 0 0 .453-.097.637.637 0 0 0 .268-.281.866.866 0 0 0 .068-.211l.032.058c.141.263.354.456.556.584ZM17.365 8.336v.007a.65.65 0 0 0-.132-.1.813.813 0 0 0-.426-.1.83.83 0 0 0-.343.074.714.714 0 0 0-.276.202.497.497 0 0 0-.106.321h-1.485c0-.363.1-.674.299-.931.202-.261.467-.46.795-.598.331-.14.687-.211 1.068-.211.214 0 .416.016.606.047v1.289ZM14.097 10.49V9.349h-2.523l.826-.953c.24-.238.454-.462.642-.673.19-.21.352-.416.483-.615.132-.202.233-.406.304-.61.07-.206.105-.42.105-.643 0-.39-.082-.722-.246-.997a1.553 1.553 0 0 0-.72-.637c-.32-.147-.716-.22-1.187-.22-.451 0-.848.098-1.191.294-.343.194-.611.453-.804.778-.19.325-.286.684-.286 1.077h1.485c0-.19.031-.362.093-.514a.871.871 0 0 1 .268-.36.637.637 0 0 1 .4-.132c.152 0 .28.032.382.096a.59.59 0 0 1 .237.286c.056.123.084.277.084.461 0 .109-.027.23-.08.365-.05.135-.13.286-.241.453a5.96 5.96 0 0 1-.44.558L9.633 9.524v.967h4.465ZM7.94 11.502V7h-.136L5 7.971v1.125l1.459-.426v2.84c.023-.002.046-.002.069-.002h.005l1.407-.006Z"/><path d="M19.006 9a.575.575 0 0 1-.32-.107.62.62 0 0 1-.236-.236.606.606 0 0 1-.085-.321V4.907l-2.523-2.293a1.123 1.123 0 0 1-.342-.793V.664c0-.171.085-.343.214-.471A.676.676 0 0 1 16.206 0h7.588c.193 0 .364.064.492.193.128.128.214.3.214.471v1.179c0 .3-.128.578-.342.793l-2.565 2.443.064 2.357a.66.66 0 0 1-.385.6l-1.903.9S19.177 9 19.07 9h-.064Zm-2.288-7.157 2.673 2.443.128.193s.064.171.064.257v2.807l.855-.386V4.693l.064-.214s.086-.15.15-.215l2.672-2.593-.043-.514h-6.563v.686Z"/></svg>