<svg xmlns="http://www.w3.org/2000/svg" xml:space="preserve" style="enable-background:new 0 0 24 24" viewBox="0 0 24 24"><path d="M11.9 14.8H8.6s-.1 0-.1.1l-.2.7c0 .1 0 .2.1.2h1.3c.1 0 .1.1.1.2l-2 2.2 1 3.4c0 .1 0 .1-.1.1h-1s-.1 0-.1-.1L7 19.8c0-.1-.2-.1-.2 0L6.4 21v.1l.4 1.5.1.1h3.3c.1 0 .1-.1.1-.1L9 18.3v-.1l3-3.2c0-.1 0-.2-.1-.2z"/><path d="M8 13H6s-.1 0-.1.1l-.3.7c0 .1 0 .2.1.2h.8c.1 0 .1.1.1.2l-2.4 6.7c0 .1-.1.1-.1.1s-.1 0-.1-.1L2.4 16c0-.1 0-.1.1-.1h.9s.1 0 .1.1l.6 1.7c0 .1.1.1.1.1s.1 0 .1-.1l1-2.7c0-.1 0-.1-.1-.1H1.1c-.1-.1-.1 0-.1 0l3.1 9c.1.1.1.1.2.1 0 0 .1 0 .1-.1l3.8-10.8c-.1 0-.1-.1-.2-.1z" style="fill:#d8141c"/><path d="M8.1 5H7v1.9l2.3 2.2 2.2 3.9c0 .1.1.2.1.2h-.2L6 8c-.3-.3-.5-.7-.5-1.1V5c0-.8.7-1.5 1.5-1.5h1.6L8.1 5zm5 10.9V20l2.7-1.3v-4.5l1.8-1-.3.2v5.3c0 .6-.3 1.1-.9 1.4l-2.7 1.3c-.8.4-1.6 0-2-.7-.1-.2-.1-.4-.1-.6v-2.5l1.5-1.7zm8.8-8.8.1-.2V5h-1.3l-.8-1.5H22c.8 0 1.5.7 1.5 1.5v1.9c0 .4-.2.8-.5 1.1l-.7.7c0-.5-.1-1-.4-1.5v-.1z"/><path d="M10.8.6c.1-.3.4-.5.7-.4L17 1.6c.2 0 .3.1.4.3l3.4 5.9c.5.8.2 1.9-.7 2.3l-.3-.5.3.5-5 2.8c-.8.5-1.9.2-2.3-.7m-.1.2-3.3-6c-.1-.1-.1-.3-.1-.4L10.8.6m8.7 8.6c.2-.1.3-.5.2-.7l-3.2-5.7-4.6-1.3-1.3 4.6 3.2 5.7c.1.3.5.3.7.2l5-2.8z" style="fill-rule:evenodd;clip-rule:evenodd"/><path d="M14.7 5c-.2.6-.8.9-1.3.7s-.9-.7-.8-1.3c.2-.6.8-.9 1.3-.7.6.1 1 .7.8 1.3z"/></svg>