<svg width="24" height="24" fill="none" xmlns="http://www.w3.org/2000/svg"><path d="M11.89 14.778l-3.267.008a.11.11 0 00-.102.075l-.25.722c-.022.076.03.152.103.152h1.27c.095 0 .146.122.08.19L7.7 18.105h.007l1.042 3.397c.022.076-.03.145-.103.145h-1.02a.104.104 0 01-.102-.076L7 19.83c-.029-.107-.168-.107-.205-.008l-.426 1.223a.109.109 0 000 .069l.39 1.481c.014.046.058.084.102.084h3.288c.073 0 .125-.076.103-.145l-1.329-4.277c-.014-.038 0-.084.03-.114l3.016-3.176c.066-.069.015-.19-.08-.19z" fill="#000"/><path d="M8.022 13l-1.99.008a.11.11 0 00-.102.076l-.257.721c-.03.076.03.152.103.152h.836c.074 0 .125.076.103.152l-2.37 6.717a.108.108 0 01-.206 0l-1.703-4.848a.112.112 0 01.103-.152h.859a.11.11 0 01.103.076l.616 1.748a.108.108 0 00.206 0l.954-2.72a.112.112 0 00-.103-.152H1.108c-.074 0-.125.076-.103.152l3.127 8.996a.108.108 0 00.205 0l3.787-10.774c.022-.076-.029-.152-.102-.152z" fill="#D8141C"/><path d="M8.15 5H7V6.92l2.311 2.213 2.213 3.916c.045.08.093.156.144.23l-.195.001-5.51-5.277A1.5 1.5 0 015.5 6.92V5A1.5 1.5 0 017 3.5h1.568L8.15 5zM13.124 15.927V20l2.736-1.282.023-4.545 1.76-.993-.256.245-.027 5.301a1.5 1.5 0 01-.864 1.35l-2.735 1.282A1.5 1.5 0 0111.625 20v-2.49l1.43-1.506.07-.077zM21.851 7.061l.15-.142V5h-1.313l-.846-1.5H22A1.5 1.5 0 0123.5 5V6.92c0 .408-.166.8-.461 1.082l-.718.689a3.123 3.123 0 00-.398-1.502l-.072-.127z" fill="#000"/><path fill-rule="evenodd" clip-rule="evenodd" d="M10.84.56a.6.6 0 01.739-.418l5.408 1.506a.6.6 0 01.361.283l3.353 5.941a1.724 1.724 0 01-.651 2.34l-.297-.52.295.522-4.957 2.799a1.722 1.722 0 01-2.348-.653m0 0L9.39 6.425a.6.6 0 01-.056-.456L10.84.559m8.617 8.61a.523.523 0 00.198-.71l-3.23-5.722-4.59-1.278-1.278 4.592 3.23 5.718a.524.524 0 00.714.2l4.957-2.8z" fill="#000"/><path d="M14.7 4.985a1.076 1.076 0 11-2.075-.577 1.076 1.076 0 012.074.577z" fill="#000"/></svg>