<svg width="25" height="24" fill="none" xmlns="http://www.w3.org/2000/svg"><path d="m12.39 14.778-3.267.008a.11.11 0 0 0-.102.075l-.25.722c-.022.076.03.152.103.152h1.27c.095 0 .146.122.08.19L8.2 18.105h.007l1.042 3.397c.022.076-.03.145-.103.145h-1.02a.104.104 0 0 1-.102-.076L7.5 19.83c-.029-.107-.168-.107-.205-.008l-.426 1.223a.109.109 0 0 0 0 .069l.39 1.481c.014.046.058.084.102.084h3.288c.073 0 .125-.076.103-.145l-1.329-4.277c-.014-.038 0-.084.03-.114l3.016-3.176c.066-.069.015-.19-.08-.19Z" fill="#000"/><path d="m8.522 13-1.99.008a.11.11 0 0 0-.102.076l-.257.721c-.03.076.03.152.103.152h.836c.074 0 .125.076.103.152l-2.37 6.717a.108.108 0 0 1-.206 0l-1.703-4.848a.112.112 0 0 1 .103-.152h.859a.11.11 0 0 1 .103.076l.616 1.748a.108.108 0 0 0 .206 0l.954-2.72a.112.112 0 0 0-.103-.152H1.608c-.074 0-.125.076-.103.152l3.127 8.996a.108.108 0 0 0 .205 0l3.787-10.774c.022-.076-.029-.152-.102-.152Z" fill="#D8141C"/><path d="M15.136 4H6.5a2 2 0 0 0-2 2v7.278h.269l.244-.688A1.61 1.61 0 0 1 6 11.599V6a.5.5 0 0 1 .5-.5h10.287L15.137 4ZM19 10.5h.07c.26 0 .497-.062.565-.08h.004a3.46 3.46 0 0 0 .18-.053l.016-.005.005-.002.004-.001.086-.029.57-.27V18a2 2 0 0 1-2 2h-6.964l-.438-1.41.086-.09H18.5a.5.5 0 0 0 .5-.5v-7.5Z" fill="#000"/><path d="M15.5 17h-2.891l.946-.997c.284-.296.424-.65.445-1.003h1.5a1 1 0 1 1 0 2ZM15.5 14h-1.768a1.578 1.578 0 0 0-1.342-.722l-2.272.005a1.76 1.76 0 0 0 .005-.083H15.5a.2.2 0 0 0 .2-.2v-1a.2.2 0 0 0-.2-.2h-6c-.009 0-.017 0-.026.002a1.544 1.544 0 0 0-.842-.299A1 1 0 0 1 9.5 11h6a1 1 0 0 1 1 1v1a1 1 0 0 1-1 1Z" fill="#000"/><path fill-rule="evenodd" clip-rule="evenodd" d="M8.5 8a1 1 0 0 1 1-1h6a1 1 0 0 1 1 1v1a1 1 0 0 1-1 1h-6a1 1 0 0 1-1-1V8Zm1-.2h6c.11 0 .2.09.2.2v1a.2.2 0 0 1-.2.2h-6a.2.2 0 0 1-.2-.2V8c0-.11.09-.2.2-.2Z" fill="#000"/><path d="M19.006 9a.575.575 0 0 1-.32-.107.62.62 0 0 1-.236-.236.606.606 0 0 1-.085-.321V4.907l-2.523-2.293a1.123 1.123 0 0 1-.342-.793V.664c0-.171.085-.343.214-.471A.676.676 0 0 1 16.206 0h7.588c.193 0 .364.064.492.193.128.128.214.3.214.471v1.179c0 .3-.128.578-.342.793l-2.565 2.443.064 2.357a.66.66 0 0 1-.385.6l-1.903.9S19.177 9 19.07 9h-.064Zm-2.288-7.157 2.673 2.443.128.193s.064.171.064.257v2.807l.855-.386V4.693l.064-.214s.086-.15.15-.215l2.672-2.593-.043-.514h-6.563v.686Z" fill="#000"/></svg>