<svg version="1.1" id="レイヤー_1" xmlns="http://www.w3.org/2000/svg" x="0" y="0" viewBox="0 0 24 24" style="enable-background:new 0 0 24 24" xml:space="preserve"><style>.st1{fill-rule:evenodd;clip-rule:evenodd}</style><path d="m11.89 14.78-3.27.01c-.04 0-.09.03-.1.08l-.25.72c-.02.08.03.15.1.15h1.27c.1 0 .15.12.08.19L7.7 18.11h.01l1.04 3.4c.02.08-.03.14-.1.14H7.63c-.05 0-.09-.03-.1-.08L7 19.83c-.03-.11-.17-.11-.21-.01l-.43 1.22c-.01.02-.01.05 0 .07l.39 1.48c.01.05.06.08.1.08h3.29c.07 0 .12-.08.1-.14l-1.33-4.28c-.01-.04 0-.08.03-.11l3.02-3.18c.08-.06.02-.18-.07-.18z"/><path d="m8.02 13-1.99.01c-.04 0-.09.03-.1.08l-.26.72c-.03.08.03.15.1.15h.84c.07 0 .12.08.1.15l-2.37 6.72c-.04.1-.17.1-.21 0l-1.7-4.85c-.03-.08.03-.15.1-.15h.87c.04 0 .09.03.1.08l.62 1.75c.04.1.17.1.21 0l.95-2.72a.109.109 0 0 0-.1-.15H1.11c-.07 0-.12.08-.1.15l3.13 9c.04.1.17.1.21 0l3.79-10.77c.01-.09-.04-.17-.12-.17z" style="fill:#d8141c"/><path class="st1" d="M22 3.5h-.5V5h.5v1.92l-5.81 5.58a.986.986 0 0 0-.3.69l-.03 5.53L13.12 20v-4.07c-.02.03-.05.05-.07.08l-1.43 1.51V20c0 .51.26.99.7 1.27.43.28.98.31 1.44.09l2.73-1.28c.52-.25.86-.77.86-1.35l.03-5.3L23.04 8c.29-.28.46-.67.46-1.08V5c0-.83-.67-1.5-1.5-1.5zM13.12 13.85v-.67a.91.91 0 0 0-.08-.37c-.05-.12-.13-.23-.22-.32L7 6.92V5h.5V3.5H7c-.83 0-1.5.67-1.5 1.5v1.92c0 .41.17.8.46 1.08l5.51 5.28h.42c.52 0 .95.23 1.23.57z"/><path class="st1" d="M13.64 3.25 9.49.73A.478.478 0 0 0 9 .72a.5.5 0 0 0-.27.41l-.32 4.84a.51.51 0 0 0 .73.48l4.46-2.32a.51.51 0 0 0 .04-.88zm-4.17 1.9.21-3.13 2.68 1.63-2.89 1.5zM14.41 6a2.5 2.5 0 0 0 0 5 2.5 2.5 0 0 0 0-5zm0 4c-.83 0-1.5-.67-1.5-1.5s.67-1.5 1.5-1.5 1.5.67 1.5 1.5-.67 1.5-1.5 1.5zM19.77 1.79a.998.998 0 0 0-1.08-.91l-2.99.26c-.55.05-.96.53-.91 1.08l.26 2.99c.05.55.53.96 1.08.91l2.99-.26c.55-.05.96-.53.91-1.08l-.26-2.99zm-3.72 3.34-.26-2.99 2.99-.26.26 2.99-2.99.26z"/></svg>