<svg width="24" height="24" fill="none" xmlns="http://www.w3.org/2000/svg"><path d="M11.89 14.778l-3.267.008a.11.11 0 00-.102.075l-.25.722c-.022.076.03.152.103.152h1.27c.095 0 .146.122.08.19L7.7 18.105h.007l1.042 3.397c.022.076-.03.145-.103.145h-1.02a.104.104 0 01-.102-.076L7 19.83c-.029-.107-.168-.107-.205-.008l-.426 1.223a.109.109 0 000 .069l.39 1.481c.014.046.058.084.102.084h3.288c.073 0 .125-.076.103-.145l-1.329-4.277c-.014-.038 0-.084.03-.114l3.016-3.176c.066-.069.015-.19-.08-.19z" fill="#000"/><path d="M8.022 13l-1.99.008a.11.11 0 00-.102.076l-.257.721c-.03.076.03.152.103.152h.836c.074 0 .125.076.103.152l-2.37 6.717a.108.108 0 01-.206 0l-1.703-4.848a.112.112 0 01.103-.152h.859a.11.11 0 01.103.076l.616 1.748a.108.108 0 00.206 0l.954-2.72a.112.112 0 00-.103-.152H1.108c-.074 0-.125.076-.103.152l3.127 8.996a.108.108 0 00.205 0l3.787-10.774c.022-.076-.029-.152-.102-.152z" fill="#D8141C"/><path d="M17.387 13.424l5.652-5.423a1.5 1.5 0 00.461-1.083V5A1.5 1.5 0 0022 3.5h-.5V5h.5v1.918l-5.813 5.579a.972.972 0 00-.221.317.938.938 0 00-.078.374l-.029 5.53L13.124 20v-4.073a1.699 1.699 0 01-.069.076l-1.43 1.507V20a1.5 1.5 0 002.136 1.358l2.735-1.282a1.5 1.5 0 00.863-1.35l.028-5.302zM11.473 13.279l.416-.001c.523 0 .952.232 1.235.576v-.666a.94.94 0 00-.299-.691L7 6.918V5h.5V3.5H7A1.5 1.5 0 005.5 5v1.918c0 .41.167.8.463 1.084l5.51 5.277z" fill="#000"/><path fill-rule="evenodd" clip-rule="evenodd" d="M9 .715a.5.5 0 01.491.017l4.144 2.523a.5.5 0 01-.03.87L9.143 6.445a.5.5 0 01-.73-.477l.32-4.84A.5.5 0 019 .714zm.47 4.432l2.887-1.5-2.681-1.632-.206 3.132zM14.413 10a1.5 1.5 0 100-3 1.5 1.5 0 000 3zm0 1a2.5 2.5 0 100-5 2.5 2.5 0 000 5zM18.776 1.875l-2.988.262.261 2.988 2.989-.261-.262-2.989zm-3.075-.735a1 1 0 00-.91 1.084l.262 2.988a1 1 0 001.083.91l2.989-.262a1 1 0 00.909-1.083l-.261-2.99A1 1 0 0018.689.88L15.7 1.14z" fill="#000"/></svg>